# xmcd
#
# Track frame offsets:
# 150
# 13750
# 28608
# 39868
# 53562
# 70541
# 83399
# 100092
# 116141
# 130239
# 146518
# 160418
# 173322
# 200945
# 211944
# 226338
# 244825
# 259683
# 276564
# 289914
# 309376
# 322328
# 335685
#
# Disc length: 4738 seconds
#
#
# Revision: 0
# Processed by: cddbd v1.5.2PL0 Copyright (c) Steve Scherf et al.
# Submitted via: FreeRIP 2.951 
#
DISCID=4b128017
DTITLE=Jorge e Mateus - 
DYEAR=2006
DGENRE=
TTITLE0=Querendo te amar
TTITLE1=Fogueira
TTITLE2=Ê saudade
TTITLE3=Cartaz
TTITLE4=Me liga no meio da noite
TTITLE5=Fogueira
TTITLE6=Cara metade
TTITLE7=Preciso amar de novo
TTITLE8=Querendo te amar
TTITLE9=Não precisa de perdão
TTITLE10=Quando dois seres se amam
TTITLE11=Fome de amor
TTITLE12=Olha amor/O que tiver de vir virá
TTITLE13=Amores são coisas da vida
TTITLE14=Goiás e mais
TTITLE15=Me leva pra casa
TTITLE16=Te cuida coração
TTITLE17=Cai na real
TTITLE18=Morena proibida
TTITLE19=O campeão
TTITLE20=Quando dois olhos
TTITLE21=Alçapão
TTITLE22=Do Brasil a Argentina
EXTD=
EXTT0=
EXTT1=
EXTT2=
EXTT3=
EXTT4=
EXTT5=
EXTT6=
EXTT7=
EXTT8=
EXTT9=
EXTT10=
EXTT11=
EXTT12=
EXTT13=
EXTT14=
EXTT15=
EXTT16=
EXTT17=
EXTT18=
EXTT19=
EXTT20=
EXTT21=
EXTT22=
PLAYORDER=
